<?xml version="1.0" encoding="UTF-8" standalone="no"?>
<svg
   width="640"
   height="640"
   viewBox="0 0 640 640"
   version="1.1"
   id="svg1"
   sodipodi:docname="roomietasks_new.svg"
   inkscape:export-filename="roomietasks.png"
   inkscape:export-xdpi="96"
   inkscape:export-ydpi="96"
   inkscape:version="1.4.2 (f4327f4, 2025-05-13)"
   xmlns:inkscape="http://www.inkscape.org/namespaces/inkscape"
   xmlns:sodipodi="http://sodipodi.sourceforge.net/DTD/sodipodi-0.dtd"
   xmlns="http://www.w3.org/2000/svg"
   xmlns:svg="http://www.w3.org/2000/svg">
  <defs
     id="defs1" />
  <g
     class="drawing-elements"
     id="g1">
    <sodipodi:namedview
       id="namedview4"
       pagecolor="#ffffff"
       bordercolor="#000000"
       borderopacity="0.25"
       inkscape:showpageshadow="2"
       inkscape:pageopacity="0.0"
       inkscape:pagecheckerboard="0"
       inkscape:deskcolor="#d1d1d1"
       inkscape:zoom="1.0601562"
       inkscape:cx="382.01916"
       inkscape:cy="303.25719"
       inkscape:window-width="2400"
       inkscape:window-height="1321"
       inkscape:window-x="2391"
       inkscape:window-y="-9"
       inkscape:window-maximized="1"
       inkscape:current-layer="g4" />
    <defs
       id="defs4">
      <inkscape:path-effect
         effect="powerclip"
         message=""
         id="path-effect7"
         is_visible="true"
         lpeversion="1"
         inverse="true"
         flatten="false"
         hide_clip="false" />
      <linearGradient
         id="svg_284"
         x1="253.73718"
         y1="111.38113"
         x2="197.80135"
         y2="399.14612"
         gradientTransform="matrix(1.4826633,0,0,1.3613346,-128.15904,-64.233055)"
         gradientUnits="userSpaceOnUse">
        <stop
           stop-color="#ffffff"
           offset="0"
           stop-opacity="0.99609"
           id="stop1"
           style="stop-color:#ffffff;stop-opacity:0;" />
        <stop
           stop-color="#240d4c"
           stop-opacity="0.99219"
           offset="1"
           id="stop2"
           style="stop-color:#af3eb6;stop-opacity:0.98438001;" />
      </linearGradient>
      <linearGradient
         id="svg_2"
         x1="321.24889"
         y1="85.078058"
         x2="299.33133"
         y2="516.69602"
         gradientTransform="matrix(1.4812102,0,0,1.3626702,-128.15904,-64.233055)"
         gradientUnits="userSpaceOnUse">
        <stop
           stop-color="#ffffff"
           stop-opacity="0.98828"
           offset="0"
           id="stop3"
           style="stop-color:#ffffff;stop-opacity:0;" />
        <stop
           stop-color="#531872"
           stop-opacity="0.98438"
           offset="1"
           id="stop4"
           style="stop-color:#9c31d3;stop-opacity:0.98438001;" />
      </linearGradient>
      <clipPath
         clipPathUnits="userSpaceOnUse"
         id="clipPath6">
        <path
           id="path7"
           inkscape:label="flecha y casa"
           d="m 487.74279,149.51197 c -3.26732,-3.13449 -7.48245,-5.02699 -12.42409,-5.66515 -0.94268,-0.0563 -1.85823,-0.11107 -2.77318,-0.16572 -1.06021,-0.0683 -2.08803,-0.13397 -3.11707,-0.20026 -2.24606,-0.13185 -4.493,-0.27063 -6.73823,-0.4157 -1.17282,-0.0779 -2.31157,-0.15367 -3.44991,-0.22926 -3.78172,-0.25101 -7.54228,-0.54747 -11.31647,-0.90322 -8.62236,-0.91819 -17.23401,-1.66283 -25.88397,-2.2539 -7.6092,-0.51737 -15.19102,-1.12256 -22.77658,-1.91692 -3.92607,-0.43549 -7.71106,-0.78997 -11.66174,-0.78997 -3.32,0.0714 -3.32051,0.0726 -6.08913,-0.33008 -7.10109,-1.22434 -14.19412,-1.85317 -21.3734,-2.37544 -5.66902,-0.41022 -11.33004,-0.82906 -16.98713,-1.38382 -7.23141,-0.76569 -14.42036,-1.43247 -21.68553,-1.77329 -5.75774,-0.27013 -11.46253,-0.69992 -17.19568,-1.29682 -6.0352,-0.63603 -12.06729,-1.18245 -18.11822,-1.63657 -7.93482,-0.58663 -15.85339,-1.20511 -23.76819,-2.02741 -6.94685,-0.72293 -13.89499,-1.29079 -20.85965,-1.80368 -5.41463,-0.39569 -10.81216,-0.81281 -16.20822,-1.41697 -10.70443,-1.31037 -22.46358,-3.75632 -32.3888,1.41697 -4.6424,3.73696 -8.27702,7.72914 -9.69648,13.64358 -0.37239,5.77209 0.12481,10.15151 3.21375,15.17103 4.59634,5.52444 8.73957,7.74951 15.87676,8.95484 1.37034,0.20407 1.36921,0.20325 2.71241,0.40327 1.80477,0.297 3.6101,0.59283 5.41518,0.88803 1.40314,0.21309 2.76475,0.42018 4.12662,0.627 -14.38595,14.26503 -28.7576,28.54335 -43.11142,42.84074 -6.9833,6.95614 -13.96874,13.91062 -20.96876,20.84997 -6.14454,6.09009 -12.28249,12.18603 -18.40827,18.29498 -3.24067,3.23361 -6.47952,6.46963 -9.73373,9.68961 -3.10654,3.0685 -6.21053,6.13996 -9.29733,9.22832 -1.73819,1.73939 -1.73793,1.73935 -3.44159,3.44442 -7.48931,7.35256 -13.319458,14.13919 -17.712189,23.73917 l 1.803674,1.80367 c -5.027706,8.7711 -4.896488,18.01427 -2.593646,27.73738 0.575033,1.30341 1.13369,2.56737 1.691809,3.83246 2.847434,7.57344 5.672326,13.70417 11.366182,19.53106 0.78867,0.76957 1.55331,1.51668 2.31884,2.26355 2.62554,2.65325 5.25459,5.29913 7.90801,7.92455 1.93872,1.91694 3.87174,3.84035 5.7977,5.77013 5.24948,5.27578 10.51238,10.5391 15.79261,15.78412 5.61234,5.57416 11.20928,11.16134 16.80207,16.75512 9.96953,9.97235 19.95435,19.93172 29.9512,29.87667 9.725,9.67408 19.4403,19.35601 29.13916,29.05628 0.61689,0.61707 1.21596,1.21582 1.81472,1.81472 0.61614,0.6163 1.21393,1.21379 1.81196,1.81196 11.10196,11.10479 22.21425,22.19898 33.33345,33.2865 3.3597,3.3498 6.71889,6.70207 10.07491,10.05554 5.36892,5.36609 10.73934,10.72943 16.12259,16.08115 1.98386,1.96972 3.96744,3.93958 5.94961,5.911 2.75304,2.75587 5.50567,5.51133 8.27121,8.25466 1.26633,1.25361 1.26693,1.25421 2.50803,2.48315 3.98685,4.01612 7.52011,7.46777 12.47933,10.25581 1.10125,0.46654 2.16974,0.91858 3.2386,1.37139 6.8654,2.93432 13.48039,4.24411 20.937,4.53267 15.61983,-0.0966 27.53463,-5.31046 38.64366,-16.30903 1.59059,-1.63033 1.58974,-1.6309 3.14886,-3.2289 3.59852,-3.5957 7.1947,-7.19188 10.76264,-10.81794 3.18691,-3.23966 6.38835,-6.46457 9.59707,-9.68263 6.06699,-6.08297 12.1195,-12.17989 18.15832,-18.29083 6.92414,-7.00702 13.86414,-13.99835 20.8113,-20.98257 14.36633,-14.44113 28.71039,-28.9042 43.03408,-43.38763 0.6049,-0.61197 1.19296,-1.20569 1.78018,-1.79955 0.92006,2.14679 1.81252,4.22921 2.70552,6.31286 l -1.80368,1.80368 c 0.11675,4.17187 1.15804,7.86644 2.70551,11.72664 3.37326,4.88297 7.11153,8.84169 12.72654,11.00022 5.36903,1.07653 10.20875,1.23686 15.23595,-1.07724 4.97972,-3.90592 9.23398,-7.58262 11.04992,-13.75683 l -0.2265,-4.28407 c -0.1336,-3.16182 -0.3119,-6.30896 -0.55657,-9.46445 -0.1174,-1.38247 -0.23132,-2.72405 -0.34527,-4.06586 -0.28154,-3.36381 -0.56263,-6.72639 -0.84521,-10.09009 -0.90777,-10.67659 -1.68233,-21.36171 -2.43206,-32.05044 -0.16726,-2.4057 -0.16612,-2.40524 -0.33007,-4.7633 -5.01925,-1.83243 -9.06349,-1.99316 -14.43216,-1.80368 -3.34241,0.40868 -6.56411,0.80801 -9.92159,0.90045 -4.0948,-0.82091 -8.11224,-1.66493 -12.28737,-1.89896 -11.39988,0.62736 -11.39829,0.62661 -36.15221,26.28863 -3.58364,3.71996 -7.21455,7.38992 -10.86763,11.04164 -6.91322,6.90473 -13.78376,13.85052 -20.6152,20.83617 -12.36762,12.64797 -24.81217,25.21807 -37.28607,37.76116 -4.3882,4.40942 -8.76893,8.82621 -13.11462,13.27758 -2.74176,2.81106 -5.49064,5.61466 -8.2505,8.40795 -1.28297,1.29569 -2.56404,2.59133 -3.84352,3.89047 -1.20012,1.2441 -2.39985,2.48936 -3.60047,3.73298 -1.13496,1.14203 -2.23914,2.24904 -3.34082,3.35737 -3.14915,3.22029 -4.84068,4.7892 -9.24763,5.76734 -4.36786,-0.89191 -6.5791,-2.71037 -9.74067,-5.78529 -0.7522,-0.76875 -1.48241,-1.51607 -2.21245,-2.26223 -2.54488,-2.50881 -5.08294,-5.02185 -7.60002,-7.55858 -1.84657,-1.8624 -3.70092,-3.71874 -5.56008,-5.56856 -5.06723,-5.02552 -10.1184,-10.06452 -15.15443,-15.12134 -5.35638,-5.38014 -10.72518,-10.74753 -16.09897,-16.11029 -8.99218,-8.97323 -17.97415,-17.95802 -26.94051,-26.95705 -10.45117,-10.49092 -20.91483,-20.96787 -31.40532,-31.41947 -9.06812,-9.03375 -18.12811,-18.07635 -27.17248,-27.13387 -5.38351,-5.39482 -10.76299,-10.79226 -16.16112,-16.17244 -5.16632,-5.14341 -10.32824,-10.29245 -15.46661,-15.46378 -1.88859,-1.90428 -3.77776,-3.8066 -5.66932,-5.70792 -2.65954,-2.63691 -5.31973,-5.27165 -7.95359,-7.93422 l -2.37267,-2.40859 c -3.77855,-3.69708 -6.94216,-6.58173 -8.06267,-11.92967 0.5779,-3.60508 0.57767,-3.60503 2.93752,-6.55316 1.04846,-1.05552 2.06757,-2.08029 3.0853,-3.10466 1.80403,-1.84307 3.60907,-3.68445 5.43866,-5.50216 1.3416,-1.33171 2.6775,-2.67043 4.00637,-4.01486 3.6106,-3.66872 7.23412,-7.32378 10.87453,-10.96292 3.86876,-3.86735 7.72167,-7.74982 11.56923,-11.63824 7.26399,-7.34277 14.54293,-14.66865 21.83468,-21.98384 8.36705,-8.39392 16.71916,-16.80472 25.06362,-25.22107 17.97092,-18.12772 35.96588,-36.2303 53.98181,-54.31325 1.80402,1.80403 1.80356,1.80336 5.86263,2.43758 1.68676,0.16773 3.32364,0.33163 4.96079,0.49442 2.99865,0.3152 6.0068,0.56027 9.01976,0.67535 l 1.80367,-1.80368 c 1.9938,1.9938 1.99544,1.99402 9.02943,2.51631 1.36277,0.0959 1.36145,0.0952 2.69723,0.1892 9.77369,0.92676 19.54252,1.80255 29.33664,2.48317 8.31297,0.57176 16.6086,1.16618 24.89789,2.0274 6.9093,0.7273 13.81856,1.29391 20.7464,1.80368 5.33903,0.39181 10.66426,0.79774 15.98586,1.38521 6.42041,0.78015 12.76514,1.40341 19.23276,1.62966 7.57264,0.25179 15.06895,0.68212 22.60117,1.5316 l 3.00935,0.3577 c 5.39868,0.62766 10.63593,1.20263 15.72898,3.21374 0.13418,1.23392 0.26476,2.43181 0.39499,3.62945 0.17251,1.64125 0.33941,3.23386 0.50685,4.82683 0.51146,4.79496 0.90149,9.45368 0.90874,14.27749 -0.007,4.32686 -0.007,4.32615 0.32455,7.72983 1.76969,12.55127 2.99757,25.14569 3.95262,37.78326 0.50043,6.68637 0.99888,13.37168 1.57856,20.05173 0.15336,1.64364 0.30278,3.23981 0.45161,4.83512 0.43894,4.71846 1.01085,8.86943 2.70551,13.30382 4.59309,-0.33608 8.823,-0.58514 13.24858,-1.8603 0.70921,-0.28751 1.39707,-0.56616 2.08542,-0.84521 1.80404,1.80403 1.80495,1.80417 5.86402,1.91692 1.68676,-0.0383 3.32363,-0.076 4.96079,-0.11325 5.03874,0.11717 8.10452,0.45831 12.62848,-1.80367 -0.91582,-4.17009 -0.91657,-4.17005 -1.14214,-7.08902 -0.0612,-0.95247 -0.12017,-1.87635 -0.17953,-2.80081 -0.14469,-2.09632 -0.28575,-4.19273 -0.42538,-6.28938 -0.0689,-1.08478 -0.13615,-2.13878 -0.20302,-3.19165 -0.0737,-1.05123 -0.14531,-2.07191 -0.21682,-3.09221 -0.20055,-3.0735 -0.56858,-5.59453 -1.47498,-8.54882 -0.29524,-0.80317 -0.58215,-1.58345 -0.86869,-2.363 l 1.80367,-1.80367 c -0.0527,-0.91766 -0.10352,-1.80795 -0.15468,-2.69861 -1.85004,-12.42532 -3.23012,-24.89413 -3.9029,-37.44075 -0.29014,-5.45165 -0.73858,-10.8616 -1.29682,-16.29246 -0.52544,-4.98399 -1.01444,-9.96329 -1.38244,-14.96111 -0.62196,-8.47723 -0.86798,-17.20021 -3.02869,-25.44618 -1.23025,-2.77214 -2.84987,-5.10061 -4.81026,-6.98129 z m 130.46673,162.00478 c -3.14434,-3.31751 -6.83519,-5.33314 -11.99043,-5.99935 -1.56592,-0.15064 -1.5656,-0.15202 -3.1005,-0.29969 -8.43997,-1.11262 -16.78504,-2.13934 -25.30946,-2.07161 -3.58967,0.0665 -7.09124,0.0472 -10.67565,-0.18783 -5.7659,-0.46499 -11.3137,-0.89973 -17.08104,-0.31488 -5.09636,0.64512 -5.09738,0.64542 -9.78626,0.57729 -23.4213,-0.0504 -47.01307,1.40842 -70.2853,4.00786 -4.47693,0.53426 -8.94786,1.04251 -13.43641,1.47084 -8.42272,0.78578 -16.76893,1.71814 -25.12439,3.0494 -8.84492,1.47684 -17.70967,2.7672 -26.59523,3.97333 -15.78354,2.12723 -31.37259,4.69429 -46.95907,7.96876 -2.91858,0.61472 -5.83844,1.22475 -8.75873,1.83129 l -5.42069,1.11177 c -5.06815,1.05883 -9.70121,1.91774 -14.88377,1.69457 2.00964,-2.00964 2.01041,-2.00944 2.07713,-5.53809 -0.14178,-4.56234 -0.14236,-4.56277 0.33698,-9.30286 0.54127,-5.10069 1.07647,-10.2002 1.6048,-15.30224 0.49704,-5.66472 1.01484,-11.31671 1.72771,-16.95813 0.26261,-2.05139 0.52367,-4.10242 0.78445,-6.15404 1.78348,-14.68042 6.95103,-33.66529 -2.88505,-46.25611 -4.9281,-5.29718 -9.12509,-9.59912 -16.70815,-10.01274 l -2.00946,2.00945 -2.00946,-2.00945 c -4.08207,1.06762 -4.0833,1.06803 -9.04461,3.01487 -5.82821,5.07619 -9.38909,9.10371 -11.07202,16.65429 -0.2709,1.7469 -0.53394,3.44068 -0.79688,5.1362 -0.83605,5.16148 -0.83607,5.1622 -1.19324,9.35811 l 2.00946,2.00946 c -2.00964,2.00964 -2.00933,2.00878 -2.35473,5.67481 -0.32944,9.96509 -1.02358,19.81634 -2.0647,29.73024 -0.67673,6.40947 -0.67669,6.40784 -2.11165,21.36651 -0.59677,6.23739 -1.17946,12.47811 -1.8382,18.70932 -1.01101,9.29523 -2.17581,18.59939 -1.98874,27.96387 0.87419,8.64222 4.67496,14.5947 11.36204,20.1484 6.72942,3.79294 12.25952,3.55607 19.7189,2.11855 1.83706,-0.37891 3.61972,-0.74536 5.40273,-1.11314 1.70695,-0.34355 3.36344,-0.67886 5.02019,-1.01231 3.70041,-0.74554 7.40155,-1.48978 11.1024,-2.23319 2.01557,-0.40475 4.02945,-0.80884 6.04494,-1.21396 12.1173,-2.44452 24.23287,-4.86001 36.41461,-6.96749 1.26338,-0.21461 2.49023,-0.42285 3.71645,-0.63115 3.87131,-0.65845 7.74337,-1.30574 11.61755,-1.94731 5.1398,-0.8479 10.28175,-1.68637 15.4141,-2.57845 18.96557,-3.3308 38.0128,-5.76469 57.14031,-7.96876 1.83672,-0.20986 1.83599,-0.21 3.63634,-0.4157 2.25684,-0.26106 4.51299,-0.52206 6.77,-0.78169 4.97443,-0.54196 9.8086,-1.05055 14.62551,-2.47211 0.79273,-0.31228 1.56185,-0.61393 2.33124,-0.91703 l 2.00946,2.00945 c 3.69382,-0.28413 6.94855,-0.9804 10.48783,-2.07436 0.87545,-0.32028 1.72599,-0.62964 2.57569,-0.94051 l 2.00946,2.00946 c 1.25979,-0.10676 2.48128,-0.21126 3.70401,-0.31488 19.22055,-2.48736 39.20232,-2.62514 58.53104,-1.25539 5.28646,0.42693 10.56972,0.80778 15.86572,1.0938 1.0542,0.0553 2.0773,0.10791 3.10049,0.16159 7.38649,0.46761 14.11787,0.38144 21.29055,-1.69596 6.43524,-4.49897 11.15061,-9.78866 14.06756,-17.08104 0,-6.42895 -1.09417,-11.35605 -4.02029,-17.08244 -0.96099,-1.39299 -1.94743,-2.64375 -2.99554,-3.7496 z"
           style="display:none" />
        <path
           id="lpe_path-effect7"
           class="powerclip"
           d="M 58.956921,58.906132 H 580.84068 V 580.78989 H 58.956921 Z M 487.74279,149.51197 c -3.26732,-3.13449 -7.48245,-5.02699 -12.42409,-5.66515 -0.94268,-0.0563 -1.85823,-0.11107 -2.77318,-0.16572 -1.06021,-0.0683 -2.08803,-0.13397 -3.11707,-0.20026 -2.24606,-0.13185 -4.493,-0.27063 -6.73823,-0.4157 -1.17282,-0.0779 -2.31157,-0.15367 -3.44991,-0.22926 -3.78172,-0.25101 -7.54228,-0.54747 -11.31647,-0.90322 -8.62236,-0.91819 -17.23401,-1.66283 -25.88397,-2.2539 -7.6092,-0.51737 -15.19102,-1.12256 -22.77658,-1.91692 -3.92607,-0.43549 -7.71106,-0.78997 -11.66174,-0.78997 -3.32,0.0714 -3.32051,0.0726 -6.08913,-0.33008 -7.10109,-1.22434 -14.19412,-1.85317 -21.3734,-2.37544 -5.66902,-0.41022 -11.33004,-0.82906 -16.98713,-1.38382 -7.23141,-0.76569 -14.42036,-1.43247 -21.68553,-1.77329 -5.75774,-0.27013 -11.46253,-0.69992 -17.19568,-1.29682 -6.0352,-0.63603 -12.06729,-1.18245 -18.11822,-1.63657 -7.93482,-0.58663 -15.85339,-1.20511 -23.76819,-2.02741 -6.94685,-0.72293 -13.89499,-1.29079 -20.85965,-1.80368 -5.41463,-0.39569 -10.81216,-0.81281 -16.20822,-1.41697 -10.70443,-1.31037 -22.46358,-3.75632 -32.3888,1.41697 -4.6424,3.73696 -8.27702,7.72914 -9.69648,13.64358 -0.37239,5.77209 0.12481,10.15151 3.21375,15.17103 4.59634,5.52444 8.73957,7.74951 15.87676,8.95484 1.37034,0.20407 1.36921,0.20325 2.71241,0.40327 1.80477,0.297 3.6101,0.59283 5.41518,0.88803 1.40314,0.21309 2.76475,0.42018 4.12662,0.627 -14.38595,14.26503 -28.7576,28.54335 -43.11142,42.84074 -6.9833,6.95614 -13.96874,13.91062 -20.96876,20.84997 -6.14454,6.09009 -12.28249,12.18603 -18.40827,18.29498 -3.24067,3.23361 -6.47952,6.46963 -9.73373,9.68961 -3.10654,3.0685 -6.21053,6.13996 -9.29733,9.22832 -1.73819,1.73939 -1.73793,1.73935 -3.44159,3.44442 -7.48931,7.35256 -13.319458,14.13919 -17.712189,23.73917 l 1.803674,1.80367 c -5.027706,8.7711 -4.896488,18.01427 -2.593646,27.73738 0.575033,1.30341 1.13369,2.56737 1.691809,3.83246 2.847434,7.57344 5.672326,13.70417 11.366182,19.53106 0.78867,0.76957 1.55331,1.51668 2.31884,2.26355 2.62554,2.65325 5.25459,5.29913 7.90801,7.92455 1.93872,1.91694 3.87174,3.84035 5.7977,5.77013 5.24948,5.27578 10.51238,10.5391 15.79261,15.78412 5.61234,5.57416 11.20928,11.16134 16.80207,16.75512 9.96953,9.97235 19.95435,19.93172 29.9512,29.87667 9.725,9.67408 19.4403,19.35601 29.13916,29.05628 0.61689,0.61707 1.21596,1.21582 1.81472,1.81472 0.61614,0.6163 1.21393,1.21379 1.81196,1.81196 11.10196,11.10479 22.21425,22.19898 33.33345,33.2865 3.3597,3.3498 6.71889,6.70207 10.07491,10.05554 5.36892,5.36609 10.73934,10.72943 16.12259,16.08115 1.98386,1.96972 3.96744,3.93958 5.94961,5.911 2.75304,2.75587 5.50567,5.51133 8.27121,8.25466 1.26633,1.25361 1.26693,1.25421 2.50803,2.48315 3.98685,4.01612 7.52011,7.46777 12.47933,10.25581 1.10125,0.46654 2.16974,0.91858 3.2386,1.37139 6.8654,2.93432 13.48039,4.24411 20.937,4.53267 15.61983,-0.0966 27.53463,-5.31046 38.64366,-16.30903 1.59059,-1.63033 1.58974,-1.6309 3.14886,-3.2289 3.59852,-3.5957 7.1947,-7.19188 10.76264,-10.81794 3.18691,-3.23966 6.38835,-6.46457 9.59707,-9.68263 6.06699,-6.08297 12.1195,-12.17989 18.15832,-18.29083 6.92414,-7.00702 13.86414,-13.99835 20.8113,-20.98257 14.36633,-14.44113 28.71039,-28.9042 43.03408,-43.38763 0.6049,-0.61197 1.19296,-1.20569 1.78018,-1.79955 0.92006,2.14679 1.81252,4.22921 2.70552,6.31286 l -1.80368,1.80368 c 0.11675,4.17187 1.15804,7.86644 2.70551,11.72664 3.37326,4.88297 7.11153,8.84169 12.72654,11.00022 5.36903,1.07653 10.20875,1.23686 15.23595,-1.07724 4.97972,-3.90592 9.23398,-7.58262 11.04992,-13.75683 l -0.2265,-4.28407 c -0.1336,-3.16182 -0.3119,-6.30896 -0.55657,-9.46445 -0.1174,-1.38247 -0.23132,-2.72405 -0.34527,-4.06586 -0.28154,-3.36381 -0.56263,-6.72639 -0.84521,-10.09009 -0.90777,-10.67659 -1.68233,-21.36171 -2.43206,-32.05044 -0.16726,-2.4057 -0.16612,-2.40524 -0.33007,-4.7633 -5.01925,-1.83243 -9.06349,-1.99316 -14.43216,-1.80368 -3.34241,0.40868 -6.56411,0.80801 -9.92159,0.90045 -4.0948,-0.82091 -8.11224,-1.66493 -12.28737,-1.89896 -11.39988,0.62736 -11.39829,0.62661 -36.15221,26.28863 -3.58364,3.71996 -7.21455,7.38992 -10.86763,11.04164 -6.91322,6.90473 -13.78376,13.85052 -20.6152,20.83617 -12.36762,12.64797 -24.81217,25.21807 -37.28607,37.76116 -4.3882,4.40942 -8.76893,8.82621 -13.11462,13.27758 -2.74176,2.81106 -5.49064,5.61466 -8.2505,8.40795 -1.28297,1.29569 -2.56404,2.59133 -3.84352,3.89047 -1.20012,1.2441 -2.39985,2.48936 -3.60047,3.73298 -1.13496,1.14203 -2.23914,2.24904 -3.34082,3.35737 -3.14915,3.22029 -4.84068,4.7892 -9.24763,5.76734 -4.36786,-0.89191 -6.5791,-2.71037 -9.74067,-5.78529 -0.7522,-0.76875 -1.48241,-1.51607 -2.21245,-2.26223 -2.54488,-2.50881 -5.08294,-5.02185 -7.60002,-7.55858 -1.84657,-1.8624 -3.70092,-3.71874 -5.56008,-5.56856 -5.06723,-5.02552 -10.1184,-10.06452 -15.15443,-15.12134 -5.35638,-5.38014 -10.72518,-10.74753 -16.09897,-16.11029 -8.99218,-8.97323 -17.97415,-17.95802 -26.94051,-26.95705 -10.45117,-10.49092 -20.91483,-20.96787 -31.40532,-31.41947 -9.06812,-9.03375 -18.12811,-18.07635 -27.17248,-27.13387 -5.38351,-5.39482 -10.76299,-10.79226 -16.16112,-16.17244 -5.16632,-5.14341 -10.32824,-10.29245 -15.46661,-15.46378 -1.88859,-1.90428 -3.77776,-3.8066 -5.66932,-5.70792 -2.65954,-2.63691 -5.31973,-5.27165 -7.95359,-7.93422 l -2.37267,-2.40859 c -3.77855,-3.69708 -6.94216,-6.58173 -8.06267,-11.92967 0.5779,-3.60508 0.57767,-3.60503 2.93752,-6.55316 1.04846,-1.05552 2.06757,-2.08029 3.0853,-3.10466 1.80403,-1.84307 3.60907,-3.68445 5.43866,-5.50216 1.3416,-1.33171 2.6775,-2.67043 4.00637,-4.01486 3.6106,-3.66872 7.23412,-7.32378 10.87453,-10.96292 3.86876,-3.86735 7.72167,-7.74982 11.56923,-11.63824 7.26399,-7.34277 14.54293,-14.66865 21.83468,-21.98384 8.36705,-8.39392 16.71916,-16.80472 25.06362,-25.22107 17.97092,-18.12772 35.96588,-36.2303 53.98181,-54.31325 1.80402,1.80403 1.80356,1.80336 5.86263,2.43758 1.68676,0.16773 3.32364,0.33163 4.96079,0.49442 2.99865,0.3152 6.0068,0.56027 9.01976,0.67535 l 1.80367,-1.80368 c 1.9938,1.9938 1.99544,1.99402 9.02943,2.51631 1.36277,0.0959 1.36145,0.0952 2.69723,0.1892 9.77369,0.92676 19.54252,1.80255 29.33664,2.48317 8.31297,0.57176 16.6086,1.16618 24.89789,2.0274 6.9093,0.7273 13.81856,1.29391 20.7464,1.80368 5.33903,0.39181 10.66426,0.79774 15.98586,1.38521 6.42041,0.78015 12.76514,1.40341 19.23276,1.62966 7.57264,0.25179 15.06895,0.68212 22.60117,1.5316 l 3.00935,0.3577 c 5.39868,0.62766 10.63593,1.20263 15.72898,3.21374 0.13418,1.23392 0.26476,2.43181 0.39499,3.62945 0.17251,1.64125 0.33941,3.23386 0.50685,4.82683 0.51146,4.79496 0.90149,9.45368 0.90874,14.27749 -0.007,4.32686 -0.007,4.32615 0.32455,7.72983 1.76969,12.55127 2.99757,25.14569 3.95262,37.78326 0.50043,6.68637 0.99888,13.37168 1.57856,20.05173 0.15336,1.64364 0.30278,3.23981 0.45161,4.83512 0.43894,4.71846 1.01085,8.86943 2.70551,13.30382 4.59309,-0.33608 8.823,-0.58514 13.24858,-1.8603 0.70921,-0.28751 1.39707,-0.56616 2.08542,-0.84521 1.80404,1.80403 1.80495,1.80417 5.86402,1.91692 1.68676,-0.0383 3.32363,-0.076 4.96079,-0.11325 5.03874,0.11717 8.10452,0.45831 12.62848,-1.80367 -0.91582,-4.17009 -0.91657,-4.17005 -1.14214,-7.08902 -0.0612,-0.95247 -0.12017,-1.87635 -0.17953,-2.80081 -0.14469,-2.09632 -0.28575,-4.19273 -0.42538,-6.28938 -0.0689,-1.08478 -0.13615,-2.13878 -0.20302,-3.19165 -0.0737,-1.05123 -0.14531,-2.07191 -0.21682,-3.09221 -0.20055,-3.0735 -0.56858,-5.59453 -1.47498,-8.54882 -0.29524,-0.80317 -0.58215,-1.58345 -0.86869,-2.363 l 1.80367,-1.80367 c -0.0527,-0.91766 -0.10352,-1.80795 -0.15468,-2.69861 -1.85004,-12.42532 -3.23012,-24.89413 -3.9029,-37.44075 -0.29014,-5.45165 -0.73858,-10.8616 -1.29682,-16.29246 -0.52544,-4.98399 -1.01444,-9.96329 -1.38244,-14.96111 -0.62196,-8.47723 -0.86798,-17.20021 -3.02869,-25.44618 -1.23025,-2.77214 -2.84987,-5.10061 -4.81026,-6.98129 z m 130.46673,162.00478 c -3.14434,-3.31751 -6.83519,-5.33314 -11.99043,-5.99935 -1.56592,-0.15064 -1.5656,-0.15202 -3.1005,-0.29969 -8.43997,-1.11262 -16.78504,-2.13934 -25.30946,-2.07161 -3.58967,0.0665 -7.09124,0.0472 -10.67565,-0.18783 -5.7659,-0.46499 -11.3137,-0.89973 -17.08104,-0.31488 -5.09636,0.64512 -5.09738,0.64542 -9.78626,0.57729 -23.4213,-0.0504 -47.01307,1.40842 -70.2853,4.00786 -4.47693,0.53426 -8.94786,1.04251 -13.43641,1.47084 -8.42272,0.78578 -16.76893,1.71814 -25.12439,3.0494 -8.84492,1.47684 -17.70967,2.7672 -26.59523,3.97333 -15.78354,2.12723 -31.37259,4.69429 -46.95907,7.96876 -2.91858,0.61472 -5.83844,1.22475 -8.75873,1.83129 l -5.42069,1.11177 c -5.06815,1.05883 -9.70121,1.91774 -14.88377,1.69457 2.00964,-2.00964 2.01041,-2.00944 2.07713,-5.53809 -0.14178,-4.56234 -0.14236,-4.56277 0.33698,-9.30286 0.54127,-5.10069 1.07647,-10.2002 1.6048,-15.30224 0.49704,-5.66472 1.01484,-11.31671 1.72771,-16.95813 0.26261,-2.05139 0.52367,-4.10242 0.78445,-6.15404 1.78348,-14.68042 6.95103,-33.66529 -2.88505,-46.25611 -4.9281,-5.29718 -9.12509,-9.59912 -16.70815,-10.01274 l -2.00946,2.00945 -2.00946,-2.00945 c -4.08207,1.06762 -4.0833,1.06803 -9.04461,3.01487 -5.82821,5.07619 -9.38909,9.10371 -11.07202,16.65429 -0.2709,1.7469 -0.53394,3.44068 -0.79688,5.1362 -0.83605,5.16148 -0.83607,5.1622 -1.19324,9.35811 l 2.00946,2.00946 c -2.00964,2.00964 -2.00933,2.00878 -2.35473,5.67481 -0.32944,9.96509 -1.02358,19.81634 -2.0647,29.73024 -0.67673,6.40947 -0.67669,6.40784 -2.11165,21.36651 -0.59677,6.23739 -1.17946,12.47811 -1.8382,18.70932 -1.01101,9.29523 -2.17581,18.59939 -1.98874,27.96387 0.87419,8.64222 4.67496,14.5947 11.36204,20.1484 6.72942,3.79294 12.25952,3.55607 19.7189,2.11855 1.83706,-0.37891 3.61972,-0.74536 5.40273,-1.11314 1.70695,-0.34355 3.36344,-0.67886 5.02019,-1.01231 3.70041,-0.74554 7.40155,-1.48978 11.1024,-2.23319 2.01557,-0.40475 4.02945,-0.80884 6.04494,-1.21396 12.1173,-2.44452 24.23287,-4.86001 36.41461,-6.96749 1.26338,-0.21461 2.49023,-0.42285 3.71645,-0.63115 3.87131,-0.65845 7.74337,-1.30574 11.61755,-1.94731 5.1398,-0.8479 10.28175,-1.68637 15.4141,-2.57845 18.96557,-3.3308 38.0128,-5.76469 57.14031,-7.96876 1.83672,-0.20986 1.83599,-0.21 3.63634,-0.4157 2.25684,-0.26106 4.51299,-0.52206 6.77,-0.78169 4.97443,-0.54196 9.8086,-1.05055 14.62551,-2.47211 0.79273,-0.31228 1.56185,-0.61393 2.33124,-0.91703 l 2.00946,2.00945 c 3.69382,-0.28413 6.94855,-0.9804 10.48783,-2.07436 0.87545,-0.32028 1.72599,-0.62964 2.57569,-0.94051 l 2.00946,2.00946 c 1.25979,-0.10676 2.48128,-0.21126 3.70401,-0.31488 19.22055,-2.48736 39.20232,-2.62514 58.53104,-1.25539 5.28646,0.42693 10.56972,0.80778 15.86572,1.0938 1.0542,0.0553 2.0773,0.10791 3.10049,0.16159 7.38649,0.46761 14.11787,0.38144 21.29055,-1.69596 6.43524,-4.49897 11.15061,-9.78866 14.06756,-17.08104 0,-6.42895 -1.09417,-11.35605 -4.02029,-17.08244 -0.96099,-1.39299 -1.94743,-2.64375 -2.99554,-3.7496 z" />
      </clipPath>
    </defs>
    <g
       id="g4">
      <title
         id="title4">Layer 1</title>
      <path
         transform="rotate(-45,319.899,319.848)"
         fill="#120231"
         x="63.956921"
         y="63.906132"
         width="511.88376"
         height="511.88376"
         id="svg_252"
         rx="100"
         stroke="null"
         stroke-width="0"
         clip-path="url(#clipPath6)"
         inkscape:path-effect="#path-effect7"
         sodipodi:type="rect"
         d="m 163.95692,63.906132 h 311.88376 c 55.4,0 100,44.599998 100,99.999998 v 311.88376 c 0,55.4 -44.6,100 -100,100 H 163.95692 c -55.4,0 -99.999999,-44.6 -99.999999,-100 V 163.90613 c 0,-55.4 44.599999,-99.999998 99.999999,-99.999998 z"
         class="selected"
         data-fill-color="#120231"
         style="display:none" />
      <path
         d="m 616.21406,84.504456 c 8.59758,2.844086 14.57911,6.737535 20.96723,13.267095 4.34765,10.369119 4.91929,20.531609 2.99532,31.636949 -5.06293,9.39484 -11.66535,16.31783 -19.46957,23.34499 -1.07003,0.98469 -2.14001,1.96938 -3.24249,2.9839 -5.54655,5.08838 -11.17397,10.06765 -16.85109,15.00324 -20.56702,18.24003 -40.28412,38.67485 -56.91103,60.7225 -1.112,1.34712 -2.22403,2.69424 -3.36975,4.08217 -1.31793,0 -2.63588,0 -3.99374,0 -0.53541,1.17874 -1.07082,2.35747 -1.62247,3.57192 -2.42978,4.70574 -4.97391,8.71661 -8.36193,12.75682 -1.31795,0 -2.63587,0 -3.99376,0 -0.46332,1.08926 -0.92665,2.17854 -1.40406,3.30084 -3.37379,6.3361 -7.67055,11.76251 -12.07487,17.36523 -1.98469,2.55603 -3.96853,5.11273 -5.95163,7.67003 -1.58454,2.03746 -1.58454,2.03746 -3.20107,4.11606 -16.81594,21.66545 -33.32365,43.48094 -48.85914,66.12624 -4.21333,6.11873 -8.48788,12.19274 -12.75252,18.27415 -3.21208,4.58642 -6.41753,9.17675 -9.60997,13.77739 -1.01146,1.45698 -2.02293,2.91394 -3.06504,4.41507 -10.01027,14.51284 -19.64807,29.27115 -29.25944,44.06088 -1.60012,2.4585 -3.20049,4.91684 -4.80107,7.37504 -2.93866,4.51381 -5.87581,9.02863 -8.81192,13.54416 -1.31488,2.02135 -2.62974,4.04268 -3.98449,6.12526 -1.40625,2.18448 -2.8125,4.36895 -4.2614,6.6196 -5.9836,9.03614 -11.24247,14.8911 -21.69801,17.87351 -12.16304,1.15115 -21.85447,-1.03216 -31.31044,-8.92177 -9.49087,-9.32104 -17.58057,-19.95553 -25.81219,-30.42306 -5.53707,-6.99778 -11.15707,-13.92627 -16.76188,-20.86738 -13.43782,-16.6502 -13.43782,-16.6502 -19.13414,-23.84728 -8.81644,-11.12648 -17.91383,-21.83512 -27.48829,-32.29074 -3.29953,-4.07422 -3.29953,-4.07422 -3.29953,-8.1564 -1.31794,0 -2.63587,0 -3.99374,0 -3.81436,-4.62435 -3.81436,-4.62435 -8.11234,-10.71575 -1.42346,-1.98909 -2.84695,-3.97821 -4.31356,-6.02758 -5.83038,-9.37802 -6.29326,-17.08564 -5.54602,-28.1607 2.99533,-7.01627 2.99533,-7.01627 5.99062,-12.24655 1.31795,0 2.63588,0 3.99377,0 0,-1.34713 0,-2.69426 0,-4.0822 7.94589,-7.28164 16.39188,-7.17583 26.55223,-6.80097 22.28446,2.79784 36.01489,27.32935 48.82992,44.05091 1.77948,2.3486 3.55797,4.69796 5.3354,7.04816 4.89725,6.45375 9.99776,12.7176 15.13261,18.97577 4.54465,5.7185 9.0811,11.44362 13.61153,17.1739 4.23372,5.30112 4.23372,5.30112 8.90795,9.79086 3.43994,3.65166 3.43994,3.65166 3.43994,7.73382 5.37142,-5.037 9.12063,-10.61613 13.1045,-16.83901 2.11978,-3.2836 2.11978,-3.2836 4.28237,-6.63354 2.29905,-3.58205 4.59356,-7.16701 6.8828,-10.75559 12.2338,-19.15614 25.17404,-37.59762 38.74363,-55.78871 7.63066,-10.24962 15.15676,-20.56214 22.47803,-31.04546 6.97961,-9.8383 14.34602,-19.26254 21.93447,-28.61515 4.03443,-4.99383 7.97004,-10.05116 11.88767,-15.14076 20.5415,-26.27658 42.53539,-51.71994 65.85798,-75.45665 4.72681,-4.69305 4.72681,-4.69305 9.14976,-10.52436 5.14956,-6.45163 11.09416,-11.64651 17.28549,-17.03039 3.79517,-3.40179 7.2948,-6.93858 10.79563,-10.65195 8.40297,-8.72663 17.71553,-16.15812 27.20745,-23.600138 1.6719,-1.408938 1.6719,-1.408938 3.37754,-2.846368 7.71266,-6.079047 15.22266,-7.073056 24.57875,-5.317997 z"
         fill="url(#svg_284)"
         id="path5"
         stroke="null"
         inkscape:label="flecha_copia"
         style="display:inline;fill:url(#svg_284);stroke-width:1.4207"
         class="" />
      <path
         d="m 330.61236,53.912494 c 10.34058,6.1805 19.25466,14.7891 28.29605,22.767318 5.33175,4.702265 10.76374,9.263762 16.23818,13.792084 5.95107,4.948874 11.77227,9.988404 17.4776,15.230684 13.13544,12.05967 26.89743,23.32071 41.08213,34.0615 0.93584,0.85264 1.8717,1.7053 2.8359,2.58378 v 3.66454 c 1.05932,0.50072 2.11866,1.00142 3.21008,1.51731 3.83619,2.07993 6.70786,4.26801 9.96113,7.18593 1.08488,0.96363 2.16979,1.92729 3.28756,2.92015 1.11259,1.00143 2.22522,2.00288 3.37157,3.03469 2.22207,1.98764 4.44636,3.97268 6.67312,5.95487 0.97758,0.87863 1.95516,1.75724 2.96238,2.66249 3.12457,2.73556 3.12457,2.73556 8.17819,6.04075 -2.24761,6.89215 -5.63227,9.65955 -10.75545,14.65812 -1.58978,1.70057 -3.17957,3.40115 -4.81755,5.15324 -4.1453,4.00809 -4.1453,4.00809 -7.73047,4.00809 -0.40669,0.98252 -0.81337,1.96509 -1.23239,2.97743 -3.1304,5.78996 -7.08563,10.33889 -11.31561,15.34522 -6.09013,-2.78261 -10.78444,-6.41807 -15.90908,-10.76457 -1.73306,-1.4691 -3.4661,-2.93821 -5.25171,-4.45181 -7.21362,-6.19586 -14.35262,-12.48054 -21.4938,-18.76328 -13.5063,-11.86536 -27.24031,-23.40779 -41.47032,-34.35809 -3.71118,-3.12057 -3.71118,-3.12057 -8.00355,-7.52231 -4.80037,-4.89192 -9.81712,-9.22682 -15.08983,-13.57734 -1.74924,-1.44787 -3.49847,-2.89572 -5.30071,-4.38745 -1.31943,-1.0841 -2.63886,-2.16822 -3.99827,-3.28516 -7.05903,3.13017 -12.83395,7.86565 -18.82201,12.71134 l -3.34534,2.69337 c -8.32848,6.78733 -16.20703,13.96259 -23.98178,21.39801 -6.65137,6.33905 -13.57442,12.15039 -20.72925,17.8789 -5.87155,4.80822 -11.56607,9.80524 -17.26052,14.82989 -7.39037,6.51853 -14.81906,12.96003 -22.40716,19.23878 -9.0924,7.5443 -17.92638,15.36614 -26.75468,23.22851 -10.40822,9.25614 -20.98351,18.28786 -31.616,27.27326 -1.42067,1.26124 -1.42067,1.26124 -2.87004,2.54799 -7.50829,6.61333 -7.50829,6.61333 -11.47055,6.61333 v 3.66452 c -3.10818,2.94324 -6.34228,5.74876 -9.63508,8.47423 -1.7885,1.49742 -3.57705,2.9949 -5.41972,4.5377 -4.6635,3.47844 -4.6635,3.47844 -8.24866,3.47844 0.0667,36.66384 0.17385,73.32735 0.32967,109.99095 0.0714,17.02312 0.12942,34.04608 0.15612,51.06937 0.0233,14.83553 0.0714,29.67074 0.14989,44.50611 0.0406,7.85705 0.0688,15.71368 0.0668,23.57087 -10e-4,7.39347 0.0307,14.786 0.0883,22.17925 0.0153,2.71514 0.0182,5.43039 0.008,8.14554 -0.0113,3.70439 0.0243,7.40885 0.0631,11.11302 0.007,2.07406 0.0127,4.14809 0.02,6.285 0.58453,5.39106 0.58453,5.39106 3.59249,9.63951 6.42738,4.29359 12.43728,4.01159 19.86546,3.92879 1.56755,0.0116 3.13511,0.0228 4.75017,0.0346 5.26281,0.0293 10.52414,0.005 15.78695,-0.017 3.7688,0.0104 7.53761,0.023 11.30637,0.0389 10.24423,0.0335 20.48795,0.0204 30.73221,-0.003 10.70987,-0.0186 21.41972,-9.1e-4 32.12959,0.0104 17.98694,0.013 35.97367,-0.005 53.96058,-0.0391 20.8091,-0.0399 41.61769,-0.027 62.42677,0.013 17.85131,0.0333 35.70244,0.0378 53.55375,0.0189 10.66836,-0.0115 21.3365,-0.013 32.00484,0.0116 10.02876,0.0212 20.05686,0.007 30.08551,-0.0359 3.68542,-0.0104 7.37087,-0.007 11.0563,0.008 5.02172,0.0199 10.04133,-0.005 15.06294,-0.0417 1.46682,0.0163 2.93367,0.0328 4.44496,0.0496 6.19688,-0.0881 10.20317,-0.48765 15.42954,-4.01801 3.40699,-5.46936 3.52945,-8.78082 3.45871,-15.24995 -0.005,-2.2446 -0.0127,-4.48919 -0.0187,-6.80181 -0.0426,-2.48249 -0.0861,-4.96497 -0.12971,-7.44745 -0.0196,-2.61896 -0.0357,-5.23798 -0.0485,-7.85699 -0.0333,-5.64008 -0.0873,-11.27939 -0.15602,-16.91914 -0.10501,-8.93472 -0.14011,-17.86888 -0.16127,-26.80417 -0.0688,-25.40852 -0.19495,-50.81573 -0.47353,-76.22282 -0.15328,-14.03332 -0.22891,-28.06479 -0.21979,-42.09902 10e-4,-7.41912 -0.037,-14.83295 -0.17262,-22.25086 -0.90232,-51.20497 -0.90232,-51.20497 9.80177,-63.42043 4.38118,-4.0028 9.21181,-7.22351 14.09629,-10.54863 3.24431,-3.50391 6.04777,-7.18377 8.96287,-10.99358 5.14628,-5.64514 9.32499,-9.58914 16.13316,-12.82583 2.50601,2.22843 2.50601,2.22843 5.06261,4.50191 11.36583,10.09455 22.75116,20.16035 34.26197,30.08207 3.62312,3.12934 7.24526,6.25985 10.86746,9.39034 1.44654,1.2471 2.89306,2.49419 4.3834,3.77905 3.37857,2.95639 6.68269,5.97119 9.95718,9.0468 2.21834,2.0407 2.21834,2.0407 4.48145,4.1226 4.33058,8.11518 3.75583,16.16891 2.68886,25.19364 -2.69588,7.45619 -7.66288,12.20941 -14.06752,16.56907 -7.72417,3.51058 -15.37274,3.2869 -23.57654,1.75355 -5.37331,-2.34893 -7.48653,-5.54296 -11.74792,-9.66154 l -2.17449,-1.99707 c -2.95774,-1.20929 -6.33366,-3.58582 -9.38103,-4.83174 0.007,1.19955 0.0126,2.39912 0.02,3.63504 0.15873,29.25798 0.27719,58.51574 0.35151,87.77404 0.0368,14.14941 0.087,28.29852 0.1694,42.44771 0.0716,12.33992 0.11775,24.6796 0.13364,37.01973 0.0101,6.52736 0.031,13.05408 0.0833,19.58124 0.0584,7.30659 0.0593,14.61208 0.056,21.91888 0.0386,3.20653 0.0386,3.20653 0.078,6.47787 -0.10974,22.45359 -6.76831,39.85088 -22.19294,55.81332 -7.69597,7.28024 -15.56861,12.66956 -25.30609,16.66215 -1.51202,0.62569 -3.02402,1.25136 -4.58187,1.89602 -7.69805,2.20521 -14.63806,2.28821 -22.59019,2.25848 -2.45436,0.013 -2.45436,0.013 -4.95831,0.0252 -5.47388,0.0231 -10.94746,0.0203 -16.42139,0.0172 -3.92849,0.0115 -7.85697,0.0235 -11.78545,0.0374 -10.66678,0.0324 -21.33348,0.0409 -32.0003,0.0432 -6.66688,0.003 -13.33373,0.0104 -20.00061,0.02 -22.06571,0.0324 -44.13133,0.0491 -66.19705,0.0465 -1.1886,-1.4e-4 -2.3772,-2.8e-4 -3.60183,-4.4e-4 -1.19004,-1.5e-4 -2.38009,-3e-4 -3.60622,-4.6e-4 -19.27592,-9.1e-4 -38.55161,0.0335 -57.8275,0.0852 -19.81516,0.0528 -39.63019,0.0773 -59.44543,0.0749 -11.11553,-9.1e-4 -22.23077,0.0104 -33.34624,0.0483 -10.45839,0.0355 -20.9162,0.0357 -31.37461,0.008 -3.83126,-0.004 -7.66254,0.005 -11.49369,0.027 -5.24532,0.0284 -10.48872,0.0115 -15.73399,-0.017 -1.5028,0.0189 -3.00562,0.0377 -4.55397,0.0571 -11.44759,-0.13515 -20.34424,-3.49221 -30.69893,-8.29218 -1.811622,-0.71802 -3.62324,-1.43602 -5.489757,-2.17579 -11.949414,-7.53664 -24.102843,-16.083 -27.822467,-30.09775 l -0.746534,-0.70744 c -5.174171,-14.21171 -6.124146,-27.02589 -5.988228,-42.10005 -0.0011,-3.46205 -0.0011,-3.46205 -0.0032,-6.99407 -0.0011,-6.2718 0.02994,-12.54303 0.06759,-18.81472 0.03389,-6.57551 0.03678,-13.15106 0.04311,-19.72667 0.01672,-12.4262 0.06071,-24.85217 0.11481,-37.27828 0.06028,-14.15752 0.08977,-28.31503 0.116631,-42.47265 0.0561,-29.09959 0.150549,-58.1989 0.270624,-87.29828 -1.558728,1.17313 -3.117487,2.34626 -4.723452,3.55493 -2.08694,1.5335 -4.174654,3.06584 -6.263074,4.59719 -1.533426,1.16109 -1.533426,1.16109 -3.097838,2.34562 -8.289535,6.02468 -14.616526,7.97306 -24.673027,7.03044 C 15.079211,359.46182 10.232746,355.51738 4.8673276,349.27673 0.40089574,341.82804 0.04636939,334.08231 0.94606901,325.57181 5.6678189,310.23699 19.782411,300.7794 31.720907,291.23831 c 5.962109,-4.86687 11.739177,-9.92563 17.512598,-15.02312 7.430055,-6.55274 14.898132,-13.03195 22.519201,-19.3533 8.681626,-7.20349 17.166102,-14.61926 25.633431,-22.08247 6.463743,-5.68439 13.000173,-11.25494 19.629023,-16.73862 6.28986,-5.21663 12.38431,-10.57332 18.37387,-16.14681 7.5577,-7.03272 15.36417,-13.65958 23.31048,-20.22651 6.17241,-5.18216 12.21418,-10.50509 18.25481,-15.84619 7.65265,-6.76121 15.32497,-13.32729 23.59756,-19.29603 3.15111,-2.40301 3.15111,-2.40301 6.37905,-5.84751 3.92559,-4.01251 8.03908,-7.49845 12.37295,-11.04368 8.32671,-6.89748 16.46088,-13.98274 24.53583,-21.18555 9.18235,-8.18502 18.48,-16.173606 27.95994,-23.998372 4.10373,-3.471943 8.13477,-6.992485 12.14189,-10.578457 1.2062,-1.079386 2.41243,-2.158771 3.65517,-3.270864 2.37512,-2.133031 4.74448,-4.272786 7.10728,-6.420081 1.08836,-0.977821 2.17671,-1.955672 3.29804,-2.963125 0.96345,-0.873759 1.92687,-1.747503 2.91952,-2.647749 8.87096,-6.993313 19.08468,-8.835929 29.68993,-4.659839 z"
         fill="url(#svg_2)"
         id="path6"
         stroke="null"
         inkscape:label="casa_copia"
         style="display:inline;fill:url(#svg_2);stroke-width:1.4207"
         sodipodi:nodetypes="ccccccccccccccccccccccccccccccccccccccccccscccccccccccccccccccccccccccccccccccccccccccccccccccccccccccccccssccccccccccccccccccccccccccccccscccccccscccccc" />
    </g>
  </g>
</svg>
